<svg width="12" height="12" viewBox="0 0 12 12" fill="none" xmlns="http://www.w3.org/2000/svg">
<path d="M5.8125 0C9 0 11.625 2.625 11.625 5.8125C11.625 9.02344 9 11.625 5.8125 11.625C2.60156 11.625 0 9.02344 0 5.8125C0 2.625 2.60156 0 5.8125 0ZM5.8125 2.57812C5.25 2.57812 4.82812 3.02344 4.82812 3.5625C4.82812 4.125 5.25 4.54688 5.8125 4.54688C6.35156 4.54688 6.79688 4.125 6.79688 3.5625C6.79688 3.02344 6.35156 2.57812 5.8125 2.57812ZM7.125 8.53125V7.96875C7.125 7.82812 6.98438 7.6875 6.84375 7.6875H6.5625V5.34375C6.5625 5.20312 6.42188 5.0625 6.28125 5.0625H4.78125C4.61719 5.0625 4.5 5.20312 4.5 5.34375V5.90625C4.5 6.07031 4.61719 6.1875 4.78125 6.1875H5.0625V7.6875H4.78125C4.61719 7.6875 4.5 7.82812 4.5 7.96875V8.53125C4.5 8.69531 4.61719 8.8125 4.78125 8.8125H6.84375C6.98438 8.8125 7.125 8.69531 7.125 8.53125Z" fill="#E60013"/>
</svg>
